<?xml version="1.0" encoding="utf-8"?>
<svg version="1.1" xmlns:xlink="http://www.w3.org/1999/xlink" width="13px" height="10px" xmlns="http://www.w3.org/2000/svg">
  <g transform="matrix(1 0 0 1 -2433 -515 )">
    <path d="M 1.94695787831513 2.5  C 1.94695787831513 3.880859375  3.10904836193448 5  4.54290171606864 5  C 5.97675507020281 5  7.13884555382215 3.880859375  7.13884555382215 2.5  C 7.13884555382215 1.119140625  5.97675507020281 0  4.54290171606864 0  C 3.10904836193448 0  1.94695787831513 1.119140625  1.94695787831513 2.5  Z M 9.08580343213729 8.25  C 9.08580343213729 6.80078125  7.86489859594384 5.625  6.3600624024961 5.625  L 6.0213728549142 5.625  C 5.57113884555382 5.82421875  5.07020280811233 5.9375  4.54290171606864 5.9375  C 4.01560062402496 5.9375  3.51669266770671 5.82421875  3.06443057722309 5.625  L 2.72574102964119 5.625  C 1.22090483619345 5.625  0 6.80078125  0 8.25  L 0 9.0625  C 0 9.580078125  0.43603744149766 10  0.973478939157566 10  L 8.11232449297972 10  C 8.64976599063963 10  9.08580343213729 9.580078125  9.08580343213729 9.0625  L 9.08580343213729 8.25  Z M 12.908736349454 3.4453125  C 13.0020280811232 3.353515625  13.0040561622465 3.20703125  12.9107644305772 3.1171875  L 12.3469578783151 2.568359375  C 12.2536661466459 2.4765625  12.1015600624025 2.4765625  12.00624024961 2.56640625  L 9.8808112324493 4.59765625  L 8.95803432137286 3.703125  C 8.86474258970359 3.611328125  8.71263650546022 3.611328125  8.61731669266771 3.701171875  L 8.04742589703588 4.24609375  C 7.95210608424337 4.3359375  7.95210608424337 4.482421875  8.04539781591264 4.57421875  L 9.70234009360374 6.181640625  C 9.79563182527301 6.2734375  9.94773790951638 6.2734375  10.0430577223089 6.18359375  L 12.908736349454 3.4453125  Z " fill-rule="nonzero" fill="#70b603" stroke="none" transform="matrix(1 0 0 1 2433 515 )" />
  </g>
</svg>