<?xml version="1.0" standalone="no"?><!DOCTYPE svg PUBLIC "-//W3C//DTD SVG 1.1//EN" "http://www.w3.org/Graphics/SVG/1.1/DTD/svg11.dtd"><svg t="1568691337741" class="icon" viewBox="0 0 1024 1024" version="1.1" xmlns="http://www.w3.org/2000/svg" p-id="4845" width="400" height="400" xmlns:xlink="http://www.w3.org/1999/xlink"><defs><style type="text/css"></style></defs><path d="M861.724379 750.942332h-2.429579l-133.964279-324.213801v-1.619719H177.932907v1.754696L44.036117 750.942332H40.72919v273.057668h821.872537v-265.903908l-0.877348-7.15376z" fill="#D9D9D9" p-id="4846"></path><path d="M848.091742 760.9306l0.40493 237.693799-123.166151-344.257827V463.71212l122.761221 297.21848z" fill="#FFFFFF" p-id="4847"></path><path d="M191.228103 663.814934h520.739735l123.773545 346.080011H64.822514L191.228103 663.814934z" fill="#F5F5F5" p-id="4848"></path><path d="M711.292955 439.213867v210.496012l-0.067489 0.067489H192.037962l-0.067488-0.067489V439.213867h519.322481zM177.932907 463.71212v190.519476L54.766757 991.268174l0.067488-229.730179 123.098662-297.825875z" fill="#FFFFFF" p-id="4849"></path><path d="M40.931655 1024v-273.057668h323.943848l0.539906 6.74883a86.452514 86.452514 0 0 0 172.297634 0l0.539906-6.74883h324.281289v273.057668z" fill="#D9D9D9" p-id="4850"></path><path d="M54.766757 1009.894945h793.729915v-244.847558H551.008238v0.539906a100.490081 100.490081 0 0 1-198.68556 0v-0.539906H54.766757z" fill="#FFFFFF" p-id="4851"></path><path d="M794.641007 205.83932l120.061689 51.426086L983.27081 0l-188.629803 205.83932zM983.27081 0L657.43729 154.345746l102.91966 51.493574L983.27081 0zM794.641007 222.981348v85.710143l51.493574-51.426085-51.493574-34.284058zM323.032756 685.546168a7.896131 7.896131 0 0 1-3.57688-14.982403c10.123245-5.061623 20.24649-10.32571 30.16727-15.724775a7.909629 7.909629 0 0 1 7.55869 13.90259c-10.055757 5.466552-20.24649 10.865617-30.639689 15.994728a7.896131 7.896131 0 0 1-3.509391 0.80986z m60.402029-33.00178a7.896131 7.896131 0 0 1-4.251763-14.577473c9.988269-5.938971 19.639096-12.080406 28.61504-18.086865a7.828643 7.828643 0 0 1 4.38674-1.349766 7.828643 7.828643 0 0 1 7.761155 9.448362 7.761155 7.761155 0 0 1-3.306927 4.994135c-9.448362 6.276412-19.301654 12.552824-29.357411 18.559283a7.626178 7.626178 0 0 1-3.846834 0.674883z m57.095104-38.468332a8.031108 8.031108 0 0 1-6.276412-3.104462 7.896131 7.896131 0 0 1 1.214789-10.865616c9.245897-6.74883 17.951888-14.240032 25.982996-21.393792a8.031108 8.031108 0 0 1 5.264088-2.024649 7.828643 7.828643 0 0 1 5.871482 2.632044 7.626178 7.626178 0 0 1 2.024649 5.669017 7.96362 7.96362 0 0 1-2.632044 5.466553 428.888157 428.888157 0 0 1-26.99532 22.203651 7.828643 7.828643 0 0 1-4.521717 1.417254z m50.683714-45.68958a7.896131 7.896131 0 0 1-5.331576-2.092137 7.828643 7.828643 0 0 1-0.472418-11.13557 264.014236 264.014236 0 0 0 21.191327-26.185461 7.896131 7.896131 0 0 1 12.890265 9.110921 272.112832 272.112832 0 0 1-22.271139 27.40025 7.896131 7.896131 0 0 1-5.803994 2.564555z m39.683121-57.095103a7.491201 7.491201 0 0 1-3.374415-0.80986 7.896131 7.896131 0 0 1-3.846833-10.32571l1.687208-3.509392h-1.21479c-3.98181 0.539906-8.031108 0.877348-12.012917 1.079813a7.96362 7.96362 0 0 1-8.233573-7.896131 7.693666 7.693666 0 0 1 2.092137-5.669017 8.031108 8.031108 0 0 1 5.466553-2.564556 128.227773 128.227773 0 0 0 20.24649-2.632044 72.549924 72.549924 0 0 0 3.306927-10.055757 7.896131 7.896131 0 0 1 7.55869-5.736505 9.110921 9.110921 0 0 1 1.95716 0 7.896131 7.896131 0 0 1 5.803994 9.380874l-0.944836 3.509391h0.40493a6.74883 6.74883 0 0 1 1.349766 1.012325 7.96362 7.96362 0 0 1-3.239439 13.49766l-3.441903 1.012325c-2.294602 5.129111-4.319251 9.853292-6.74883 14.442496a7.828643 7.828643 0 0 1-6.816319 4.926646z m-53.585711-17.277005a12.620312 12.620312 0 0 1-2.159626 0 119.926712 119.926712 0 0 1-33.271732-15.589798 7.896131 7.896131 0 0 1 4.724181-14.240032 8.233573 8.233573 0 0 1 4.116786 1.147301 99.950175 99.950175 0 0 0 28.750017 13.497661 8.368549 8.368549 0 0 1 4.791669 3.779345 8.098596 8.098596 0 0 1 0.674883 6.006458 7.96362 7.96362 0 0 1-7.626178 5.061623z m101.232452-16.062216a7.896131 7.896131 0 0 1-7.896131-8.301061 8.031108 8.031108 0 0 1 4.38674-6.74883 244.307652 244.307652 0 0 0 28.21011-17.614447 8.098596 8.098596 0 0 1 4.319251-1.282278 7.896131 7.896131 0 0 1 6.411389 3.306927 7.828643 7.828643 0 0 1-1.552231 10.798128 274.137481 274.137481 0 0 1-29.897318 18.761748 8.368549 8.368549 0 0 1-3.98181 1.079813zM419.338562 455.950966a7.828643 7.828643 0 0 1-5.871482-2.632044 88.679628 88.679628 0 0 1-19.571608-32.326897 7.896131 7.896131 0 0 1 7.626178-10.123245h1.822184a7.96362 7.96362 0 0 1 5.736506 5.466552 71.942529 71.942529 0 0 0 16.534634 26.25295 7.896131 7.896131 0 0 1-0.607395 11.13557 8.031108 8.031108 0 0 1-5.264087 2.024649z m127.080472-10.393199a7.896131 7.896131 0 0 1-7.896131-7.086272 55.070454 55.070454 0 0 0-9.650828-28.412575 7.896131 7.896131 0 0 1 12.957754-9.043432 69.91788 69.91788 0 0 1 12.485336 36.443683 7.828643 7.828643 0 0 1-7.423713 8.031108z m87.329862-6.74883a7.896131 7.896131 0 0 1-5.399064-13.49766c8.436038-7.356225 16.602122-15.11738 24.430765-23.148488a7.693666 7.693666 0 0 1 5.466553-2.227114 7.896131 7.896131 0 0 1 5.803993 13.497661c-8.098596 8.301061-16.602122 16.399657-25.308113 24.025835a7.896131 7.896131 0 0 1-4.994134 1.754696z m-224.196138-44.609767a8.503526 8.503526 0 0 1-2.227114-0.337442 7.761155 7.761155 0 0 1-5.399064-5.736506 7.896131 7.896131 0 0 1 2.227114-7.558689 68.095696 68.095696 0 0 1 35.36387-16.062216h1.349766a7.896131 7.896131 0 0 1 7.423713 10.595663 8.031108 8.031108 0 0 1-6.006459 5.129111 53.518223 53.518223 0 0 0-26.99532 11.94543 8.098596 8.098596 0 0 1-5.466553 2.159625z m99.612733-3.509392a8.166084 8.166084 0 0 1-3.981809-1.079813 97.183154 97.183154 0 0 0-30.23476-9.650827 7.896131 7.896131 0 0 1-6.208923-4.926646 7.96362 7.96362 0 0 1 7.356225-10.865617h1.282277a112.570487 112.570487 0 0 1 35.093917 11.338035 7.828643 7.828643 0 0 1 0.80986 13.835102 7.693666 7.693666 0 0 1-4.116787 1.214789z m173.107494-1.619719a8.031108 8.031108 0 0 1-5.129111-1.889673 7.828643 7.828643 0 0 1-1.079813-10.865616c7.221248-8.503526 14.30752-17.411982 21.05635-26.455415a7.828643 7.828643 0 0 1 6.141436-2.834508 7.896131 7.896131 0 0 1 6.74883 12.417847c-6.74883 9.178409-14.240032 18.28933-21.663745 26.995321a8.031108 8.031108 0 0 1-5.803994 2.497067z m40.965399-55.070454a7.896131 7.896131 0 0 1-6.74883-4.454228 8.098596 8.098596 0 0 1 0.742371-8.098597c6.276412-9.313386 12.350359-18.964213 18.221842-28.615039a7.693666 7.693666 0 0 1 6.74883-3.846834 7.828643 7.828643 0 0 1 4.049298 1.147302 7.896131 7.896131 0 0 1 2.699532 10.798128c-5.938971 9.92078-12.147894 19.774072-18.559283 29.289923a7.761155 7.761155 0 0 1-6.74883 3.846833z m35.566335-58.377381a8.031108 8.031108 0 0 1-3.779345-0.944837 7.828643 7.828643 0 0 1-3.17195-10.663151c3.306927-6.208924 6.74883-12.417847 9.650827-18.69426a8.031108 8.031108 0 0 1 6.74883-3.98181 7.896131 7.896131 0 0 1 7.221248 11.068082c-3.17195 6.411389-6.74883 12.755289-9.853292 19.031701a7.96362 7.96362 0 0 1-6.74883 4.184275z" fill="#C0BFBE" p-id="4852"></path></svg>