<?xml version="1.0" standalone="no"?><!DOCTYPE svg PUBLIC "-//W3C//DTD SVG 1.1//EN" "http://www.w3.org/Graphics/SVG/1.1/DTD/svg11.dtd"><svg t="1584069863196" class="icon" viewBox="0 0 1024 1024" version="1.1" xmlns="http://www.w3.org/2000/svg" p-id="11705" xmlns:xlink="http://www.w3.org/1999/xlink" width="64" height="64"><defs><style type="text/css"></style></defs><path d="M212.992 526.336 212.992 526.336 212.992 526.336 215.04 526.336 212.992 526.336Z" p-id="11706" fill="#ffffff"></path><path d="M108.544 542.72 108.544 542.72l61.44 0L169.984 172.032c0-20.48 8.192-38.912 22.528-53.248C204.8 104.448 225.28 96.256 245.76 96.256l528.384 0c20.48 0 38.912 8.192 53.248 22.528l0 0c12.288 14.336 20.48 32.768 20.48 53.248l0 370.688 61.44 0c18.432 0 32.768 14.336 32.768 32.768l0 0L942.08 880.64c0 18.432-14.336 32.768-32.768 32.768l0 0L108.544 913.408c-18.432 0-32.768-14.336-32.768-32.768l0 0L75.776 577.536C75.776 559.104 90.112 542.72 108.544 542.72L108.544 542.72zM208.896 542.72 208.896 542.72l94.208 0c18.432 0 32.768 14.336 32.768 30.72 6.144 40.96 28.672 77.824 57.344 102.4 30.72 26.624 69.632 43.008 112.64 43.008 43.008 0 81.92-16.384 112.64-43.008 30.72-26.624 53.248-63.488 59.392-104.448 2.048-16.384 16.384-28.672 32.768-28.672l94.208 0L804.864 172.032c0-10.24-4.096-18.432-10.24-24.576l0-2.048c-6.144-6.144-16.384-10.24-26.624-10.24L245.76 135.168c-10.24 0-18.432 4.096-24.576 10.24-6.144 6.144-10.24 16.384-10.24 26.624L210.944 542.72 208.896 542.72zM319.488 368.64 319.488 368.64l133.12 133.12c12.288 12.288 34.816 12.288 47.104 0l0 0 239.616-239.616c12.288-12.288 12.288-34.816 0-47.104-12.288-12.288-34.816-12.288-47.104 0L477.184 430.08 368.64 321.536c-12.288-12.288-34.816-12.288-47.104 0C307.2 333.824 307.2 356.352 319.488 368.64L319.488 368.64zM276.48 610.304 276.48 610.304 141.312 610.304l0 237.568 735.232 0L876.544 610.304l-135.168 0c-12.288 47.104-38.912 88.064-75.776 116.736-40.96 36.864-96.256 57.344-155.648 57.344-59.392 0-114.688-20.48-157.696-57.344C317.44 696.32 290.816 657.408 276.48 610.304L276.48 610.304z" p-id="11707" fill="#ffffff"></path></svg>