<?xml version="1.0" standalone="no"?><!DOCTYPE svg PUBLIC "-//W3C//DTD SVG 1.1//EN" "http://www.w3.org/Graphics/SVG/1.1/DTD/svg11.dtd"><svg t="1584076498199" class="icon" viewBox="0 0 1024 1024" version="1.1" xmlns="http://www.w3.org/2000/svg" p-id="26388" xmlns:xlink="http://www.w3.org/1999/xlink" width="64" height="64"><defs><style type="text/css"></style></defs><path d="M921.9 701.4H808.1V587.6c0-17.9-14.6-32.5-32.5-32.5s-32.5 14.6-32.5 32.5v113.7H629.4c-17.9 0-32.5 14.6-32.5 32.5s14.6 32.5 32.5 32.5h113.7V880c0 17.9 14.6 32.5 32.5 32.5s32.5-14.6 32.5-32.5V766.4h113.7c17.9 0 32.5-14.6 32.5-32.5s-14.5-32.5-32.4-32.5zM178.6 676.7h-41.5V167.8h535v38c0 19.3 15.7 35 35 35s35-15.7 35-35v-73c0-19.3-15.7-35-35-35h-605c-19.3 0-35 15.7-35 35v578.9c0 19.3 15.7 35 35 35h76.5c19.3 0 35-15.7 35-35s-15.6-35-35-35z" p-id="26389" fill="#ffffff"></path><path d="M564.9 856.2H307.1V347.3h535v156.4c0 19.3 15.7 35 35 35s35-15.7 35-35V312.3c0-19.3-15.7-35-35-35h-605c-19.3 0-35 15.7-35 35v578.9c0 19.3 15.7 35 35 35h292.8c19.3 0 35-15.7 35-35s-15.7-35-35-35z" p-id="26390" fill="#ffffff"></path><path d="M757.9 454.4c0-19.3-15.7-35-35-35H427.3c-19.3 0-35 15.7-35 35s15.7 35 35 35H723c19.3 0 34.9-15.6 34.9-35zM587.1 598.5c0-19.3-15.7-35-35-35H427.3c-19.3 0-35 15.7-35 35s15.7 35 35 35h124.8c19.3 0 35-15.7 35-35zM427.3 707.6c-19.3 0-35 15.7-35 35s15.7 35 35 35h59.4c19.3 0 35-15.7 35-35s-15.7-35-35-35h-59.4z" p-id="26391" fill="#ffffff"></path></svg>