<?xml version="1.0" standalone="no"?><!DOCTYPE svg PUBLIC "-//W3C//DTD SVG 1.1//EN" "http://www.w3.org/Graphics/SVG/1.1/DTD/svg11.dtd"><svg t="1584074358742" class="icon" viewBox="0 0 1024 1024" version="1.1" xmlns="http://www.w3.org/2000/svg" p-id="20499" xmlns:xlink="http://www.w3.org/1999/xlink" width="64" height="64"><defs><style type="text/css"></style></defs><path d="M899.5 288.4L528 74c-9.9-5.7-22.1-5.7-32 0L140.3 278.9c-10 5.6-16.1 16.2-16.2 27.6l-0.1 410.6c0 11.4 6.1 22 16 27.7L512 959v0.1c20-11.4 32-32.5 32-55.3l-0.1-372.6 323.7-187.3c19.7-11.5 31.9-32.6 31.9-55.5zM188 698.7V362.4l292 168.7v335.7L188 698.7z m323.8-223L220.4 306.9 512 138.7 803.6 307 511.8 475.7z" p-id="20500" fill="#ffffff"></path><path d="M928 672H800V544c0-17.7-14.3-32-32-32s-32 14.3-32 32v128H608c-17.7 0-32 14.3-32 32s14.3 32 32 32h128v128c0 17.7 14.3 32 32 32s32-14.3 32-32V736h128c17.7 0 32-14.3 32-32s-14.3-32-32-32z" p-id="20501" fill="#ffffff"></path></svg>