<?xml version="1.0" standalone="no"?><!DOCTYPE svg PUBLIC "-//W3C//DTD SVG 1.1//EN" "http://www.w3.org/Graphics/SVG/1.1/DTD/svg11.dtd"><svg t="1584076356726" class="icon" viewBox="0 0 1024 1024" version="1.1" xmlns="http://www.w3.org/2000/svg" p-id="25504" xmlns:xlink="http://www.w3.org/1999/xlink" width="64" height="64"><defs><style type="text/css"></style></defs><path d="M704 1024 0 1024 0 0 1024 0 1024 704 960 704 960 64 64 64 64 960 704 960Z" p-id="25505" fill="#ffffff"></path><path d="M704 1024 153.6 1024C70.4 1024 0 953.6 0 870.4L0 153.6C0 70.4 70.4 0 153.6 0l716.8 0C953.6 0 1024 70.4 1024 153.6L1024 704l-64 0L960 153.6C960 102.4 921.6 64 870.4 64L153.6 64C102.4 64 64 102.4 64 153.6l0 723.2C64 928 102.4 960 153.6 960L704 960 704 1024z" p-id="25506" fill="#ffffff"></path><path d="M704 832l320 0 0 64-320 0 0-64Z" p-id="25507" fill="#ffffff"></path><path d="M832 704l64 0 0 320-64 0 0-320Z" p-id="25508" fill="#ffffff"></path><path d="M640 576l128 0 0 128-128 0 0-128Z" p-id="25509" fill="#ffffff"></path><path d="M640 384l128 0 0 128-128 0 0-128Z" p-id="25510" fill="#ffffff"></path><path d="M640 192l128 0 0 128-128 0 0-128Z" p-id="25511" fill="#ffffff"></path><path d="M448 576l128 0 0 128-128 0 0-128Z" p-id="25512" fill="#ffffff"></path><path d="M448 384l128 0 0 128-128 0 0-128Z" p-id="25513" fill="#ffffff"></path><path d="M448 192l128 0 0 128-128 0 0-128Z" p-id="25514" fill="#ffffff"></path><path d="M256 576l128 0 0 128-128 0 0-128Z" p-id="25515" fill="#ffffff"></path><path d="M256 384l128 0 0 128-128 0 0-128Z" p-id="25516" fill="#ffffff"></path><path d="M256 192l128 0 0 128-128 0 0-128Z" p-id="25517" fill="#ffffff"></path></svg>