<?xml version="1.0" standalone="no"?><!DOCTYPE svg PUBLIC "-//W3C//DTD SVG 1.1//EN" "http://www.w3.org/Graphics/SVG/1.1/DTD/svg11.dtd"><svg t="1584066929218" class="icon" viewBox="0 0 1024 1024" version="1.1" xmlns="http://www.w3.org/2000/svg" p-id="3403" xmlns:xlink="http://www.w3.org/1999/xlink" width="200" height="200"><defs><style type="text/css"></style></defs><path d="M704.128 812.928h-480a28.032 28.032 0 1 1 0-56.064h480a28.032 28.032 0 1 1 0 56.064z m0 0" p-id="3404" fill="#ffffff"></path><path d="M756.224 958.08H171.968c-46.4 0-84.096-37.76-84.096-84.096V150.656c0-46.4 37.76-84.096 84.096-84.096h395.648a28.032 28.032 0 1 1 0 56.064H171.968a28.032 28.032 0 0 0-28.032 28.032v723.328c0 15.424 12.544 28.032 28.032 28.032h584.256a28.096 28.096 0 0 0 28.032-28.032v-223.232a28.032 28.032 0 1 1 56.064 0v223.232a84.16 84.16 0 0 1-84.096 84.096z m0 0" p-id="3405" fill="#ffffff"></path><path d="M399.488 673.024a28.608 28.608 0 0 1-20.032-8.256c-9.536-9.472-9.536-9.472-3.84-78.4l6.08-72.96c3.072-37.056 26.112-86.72 52.416-113.088l268.352-268.352c31.616-31.616 87.232-31.68 118.976 0l90.752 90.816a84.16 84.16 0 0 1 0 118.976L643.84 610.112c-26.304 26.304-76.032 49.344-113.088 52.416l-72.96 6.08c-35.072 2.88-54.656 4.416-58.304 4.416z m362.496-509.504a28.096 28.096 0 0 0-19.904 8.128L473.792 440c-17.28 17.28-34.176 53.76-36.16 78.08l-6.144 72.896-1.92 23.616 23.616-1.92 72.96-6.08c24.32-1.984 60.8-18.944 78.016-36.16l268.352-268.352a28.096 28.096 0 0 0 0-39.68l-90.816-90.816a27.904 27.904 0 0 0-19.712-8.064z m0 0" p-id="3406" fill="#ffffff"></path></svg>