<?xml version="1.0" standalone="no"?><!DOCTYPE svg PUBLIC "-//W3C//DTD SVG 1.1//EN" "http://www.w3.org/Graphics/SVG/1.1/DTD/svg11.dtd"><svg t="1584073192052" class="icon" viewBox="0 0 1024 1024" version="1.1" xmlns="http://www.w3.org/2000/svg" p-id="16194" xmlns:xlink="http://www.w3.org/1999/xlink" width="64" height="64"><defs><style type="text/css"></style></defs><path d="M582.656 138.24H442.368c-18.432 0-32.768-14.336-32.768-32.768s14.336-32.768 32.768-32.768H583.68c18.432 0 32.768 14.336 32.768 32.768s-15.36 32.768-33.792 32.768z" fill="#ffffff" p-id="16195"></path><path d="M857.088 995.328H166.912c-51.2 0-92.16-40.96-92.16-92.16V164.864c0-51.2 40.96-92.16 92.16-92.16h43.008c18.432 0 32.768 14.336 32.768 32.768s-14.336 32.768-32.768 32.768h-43.008c-14.336 0-26.624 11.264-26.624 25.6v739.328c0 14.336 11.264 25.6 26.624 25.6h690.176c14.336 0 25.6-11.264 25.6-25.6V164.864c0-14.336-11.264-25.6-25.6-25.6h-47.104c-18.432 0-32.768-14.336-32.768-32.768s14.336-32.768 32.768-32.768h47.104c51.2 0 92.16 40.96 92.16 92.16v739.328c0 49.152-40.96 90.112-92.16 90.112z" fill="#ffffff" p-id="16196"></path><path d="M916.48 358.4H108.544c-18.432 0-32.768-14.336-32.768-32.768s14.336-32.768 32.768-32.768h807.936c18.432 0 32.768 14.336 32.768 32.768S934.912 358.4 916.48 358.4z" fill="#ffffff" p-id="16197"></path><path d="M696.32 191.488c-20.48 0-36.864-16.384-36.864-36.864V56.32c0-20.48 16.384-36.864 36.864-36.864s36.864 16.384 36.864 36.864v98.304c0 19.456-16.384 36.864-36.864 36.864zM328.704 191.488c-20.48 0-36.864-16.384-36.864-36.864V56.32c0-20.48 16.384-36.864 36.864-36.864s36.864 16.384 36.864 36.864v98.304c0 19.456-16.384 36.864-36.864 36.864z" fill="#ffffff" p-id="16198"></path><path d="M499.712 530.432H230.4c-18.432 0-32.768-14.336-32.768-32.768s14.336-32.768 32.768-32.768h269.312c18.432 0 32.768 14.336 32.768 32.768s-14.336 32.768-32.768 32.768zM720.896 726.016H230.4c-18.432 0-32.768-14.336-32.768-32.768s14.336-32.768 32.768-32.768h489.472c18.432 0 32.768 14.336 32.768 32.768s-14.336 32.768-31.744 32.768z" fill="#ffffff" p-id="16199"></path></svg>